<svg width="18" height="18" viewBox="0 0 18 18" fill="none" xmlns="http://www.w3.org/2000/svg">
<path fill-rule="evenodd" clip-rule="evenodd" d="M11.4697 1.71967C11.7626 1.42678 12.2374 1.42678 12.5303 1.71967L16.2803 5.46967C16.5732 5.76256 16.5732 6.23744 16.2803 6.53033L6.53033 16.2803C6.38968 16.421 6.19891 16.5 6 16.5H2.25C1.83579 16.5 1.5 16.1642 1.5 15.75V12C1.5 11.8011 1.57902 11.6103 1.71967 11.4697L11.4697 1.71967ZM10.8107 4.5L13.5 7.18934L14.6893 6L12 3.31066L10.8107 4.5ZM12.4393 8.25L9.75 5.56066L3 12.3107V15H5.68934L12.4393 8.25Z" fill="#F3F4F4"/>
</svg>
