<svg width="20" height="20" viewBox="0 0 20 20" fill="none" xmlns="http://www.w3.org/2000/svg">
<path d="M10 16.6667C10.4602 16.6667 10.8333 16.2936 10.8333 15.8333C10.8333 15.3731 10.4602 15 10 15C9.53977 15 9.16667 15.3731 9.16667 15.8333C9.16667 16.2936 9.53977 16.6667 10 16.6667Z" fill="#B8B7BC" stroke="#B8B7BC" stroke-linecap="round" stroke-linejoin="round"/>
<path d="M10 10.8333C10.4602 10.8333 10.8333 10.4602 10.8333 10C10.8333 9.53976 10.4602 9.16666 10 9.16666C9.53977 9.16666 9.16667 9.53976 9.16667 10C9.16667 10.4602 9.53977 10.8333 10 10.8333Z" fill="#B8B7BC" stroke="#B8B7BC" stroke-linecap="round" stroke-linejoin="round"/>
<path d="M10 5C10.4602 5 10.8333 4.62691 10.8333 4.16667C10.8333 3.70643 10.4602 3.33334 10 3.33334C9.53977 3.33334 9.16667 3.70643 9.16667 4.16667C9.16667 4.62691 9.53977 5 10 5Z" fill="#B8B7BC" stroke="#B8B7BC" stroke-linecap="round" stroke-linejoin="round"/>
</svg>
