<svg width="19" height="20" viewBox="0 0 19 20" fill="none" xmlns="http://www.w3.org/2000/svg">
<path fill-rule="evenodd" clip-rule="evenodd" d="M19 9.91399C19 9.22661 18.9383 8.56566 18.8237 7.93115H9.69385V11.6809H14.9109C14.6862 12.8927 14.0032 13.9193 12.9765 14.6067V17.039H16.1094C17.9425 15.3514 19 12.8662 19 9.91399Z" fill="#4285F4"/>
<path fill-rule="evenodd" clip-rule="evenodd" d="M9.69405 19.3877C12.3114 19.3877 14.5057 18.5196 16.1096 17.0391L12.9768 14.6068C12.1087 15.1885 10.9983 15.5322 9.69405 15.5322C7.16924 15.5322 5.03218 13.8269 4.26989 11.5356H1.03125V14.0472C2.62633 17.2154 5.90463 19.3877 9.69405 19.3877Z" fill="#34A853"/>
<path fill-rule="evenodd" clip-rule="evenodd" d="M4.26971 11.5356C4.07583 10.954 3.96568 10.3327 3.96568 9.69376C3.96568 9.05485 4.07583 8.43356 4.26971 7.85193V5.34033H1.03108C0.374536 6.64901 0 8.12952 0 9.69376C0 11.258 0.374536 12.7385 1.03108 14.0472L4.26971 11.5356Z" fill="#FBBC05"/>
<path fill-rule="evenodd" clip-rule="evenodd" d="M9.69405 3.85552C11.1173 3.85552 12.3951 4.34462 13.3998 5.30519L16.1801 2.52481C14.5013 0.960575 12.307 0 9.69405 0C5.90463 0 2.62633 2.17231 1.03125 5.34045L4.26989 7.85204C5.03218 5.56076 7.16924 3.85552 9.69405 3.85552Z" fill="#EA4335"/>
</svg>
