<svg width="36" height="36" viewBox="0 0 36 36" fill="none" xmlns="http://www.w3.org/2000/svg">
<path d="M18.052 8.6875C12.4518 8.6875 7.93555 12.3005 7.93555 16.6867C7.93555 19.5337 9.81432 22.0267 12.6325 23.4502L11.6786 27.0127C11.6606 27.0661 11.6579 27.1234 11.6706 27.1783C11.6834 27.2332 11.7112 27.2834 11.7509 27.3234C11.8088 27.3744 11.8833 27.4027 11.9604 27.4029C12.0244 27.3977 12.0852 27.3724 12.1339 27.3306L16.2383 24.5631C16.8441 24.6467 17.4548 24.6901 18.0664 24.6931C23.6594 24.6931 28.1829 21.0801 28.1829 16.6867C28.1829 12.2933 23.6449 8.6875 18.052 8.6875Z" fill="#392020"/>
</svg>
