<svg width="81" height="20" viewBox="0 0 81 20" fill="none" xmlns="http://www.w3.org/2000/svg">
<path d="M64.063 8.67993H72.544L72.461 9.96739C72.4196 11.1095 73.249 12.127 74.4102 12.21C75.5507 12.2723 76.546 11.4002 76.629 10.2581L77.2096 2.0973C77.2096 1.95195 77.2096 1.80659 77.1889 1.66123C77.1059 0.664493 76.2765 0 75.2604 0H63.669C62.6322 0 61.8027 0.726789 61.8027 1.78582C61.8027 2.82409 62.6322 3.55088 63.669 3.55088H72.938L72.8136 5.12905H64.063C63.0262 5.12905 62.1967 5.85584 62.1967 6.91487C62.1967 7.95314 63.0262 8.67993 64.063 8.67993Z" fill="#F3F4F4"/>
<path d="M25.2888 8.67993H33.7892L33.706 9.96739C33.6645 11.1095 34.4958 12.127 35.6597 12.21C36.8027 12.2723 37.8003 11.4002 37.8835 10.2581L38.4654 2.0973C38.4654 1.95195 38.4654 1.80659 38.4446 1.66123C38.3615 0.664493 37.5301 0 36.5118 0H24.8939C23.8548 0 23.0234 0.726789 23.0234 1.78582C23.0234 2.82409 23.8548 3.55088 24.8939 3.55088H34.184L34.0593 5.12905H25.2888C24.2496 5.12905 23.4183 5.85584 23.4183 6.91487C23.4183 7.95314 24.2496 8.67993 25.2888 8.67993Z" fill="#F3F4F4"/>
<path fill-rule="evenodd" clip-rule="evenodd" d="M13.1544 12.226H17.163C18.2222 12.226 19.0946 11.4787 19.0946 10.4409C19.0946 9.38227 18.2222 8.65576 17.163 8.65576H7.98262V2.05497C7.98262 0.913319 7.04797 0 5.88485 0C4.72172 0 3.80784 0.913319 3.80784 2.05497V10.4824C3.82861 11.4995 4.65941 12.226 5.69792 12.226H9.69269V16.3207C6.87415 15.905 4.48611 14.4548 2.93989 12.9463C2.25586 12.279 1.16004 12.2922 0.492295 12.9758C-0.175446 13.6594 -0.162243 14.7546 0.521784 15.4219C2.55859 17.409 5.73003 19.3286 9.55981 19.7932C13.4534 20.2657 17.8669 19.2122 22.2368 15.5024C22.9653 14.8839 23.0542 13.7923 22.4353 13.0642C21.8165 12.3361 20.7242 12.2473 19.9956 12.8658C17.5881 14.9096 15.2734 15.924 13.1544 16.2831V12.226Z" fill="#F3F4F4"/>
<path fill-rule="evenodd" clip-rule="evenodd" d="M19.7834 13.0685C19.1645 13.7962 19.2534 14.8871 19.982 15.5053C24.3518 19.2127 28.7653 20.2656 32.6589 19.7934C36.4887 19.3291 39.6602 17.4106 41.697 15.4248C42.381 14.7578 42.3942 13.6634 41.7265 12.9802C41.0587 12.297 39.9629 12.2838 39.2789 12.9507C37.6809 14.5087 35.1839 16.0045 32.2417 16.3612C29.3635 16.7102 25.9016 15.9911 22.2231 12.8702C21.4946 12.2521 20.4023 12.3409 19.7834 13.0685Z" fill="#F3F4F4"/>
<path fill-rule="evenodd" clip-rule="evenodd" d="M44.4792 12.226H48.3216V16.2972C45.5694 15.8526 43.2394 14.4275 41.7211 12.9463C41.0371 12.279 39.9413 12.2922 39.2735 12.9758C38.6058 13.6594 38.619 14.7546 39.303 15.4219C41.3398 17.409 44.5113 19.3286 48.3411 19.7932C52.2347 20.2657 56.6482 19.2122 61.018 15.5024C61.7466 14.8839 61.8355 13.7923 61.2166 13.0642C60.5977 12.3361 59.5054 12.2473 58.7769 12.8658C56.3115 14.9587 53.9435 15.9722 51.7832 16.3078V12.226H55.9442C57.0035 12.226 57.8758 11.4787 57.8758 10.4409C57.8758 9.38227 57.0035 8.65576 55.9442 8.65576H46.7639V2.05497C46.7639 0.913319 45.8292 0 44.6661 0C43.503 0 42.5891 0.913319 42.5891 2.05497V10.4824C42.6099 11.4995 43.4407 12.226 44.4792 12.226Z" fill="#F3F4F4"/>
<path fill-rule="evenodd" clip-rule="evenodd" d="M58.5647 13.0685C57.9458 13.7962 58.0347 14.8871 58.7632 15.5053C63.1331 19.2127 67.5466 20.2656 71.4402 19.7934C75.27 19.3291 78.4414 17.4106 80.4782 15.4248C81.1622 14.7578 81.1754 13.6634 80.5077 12.9802C79.84 12.297 78.7441 12.2838 78.0601 12.9507C76.4622 14.5087 73.9651 16.0045 71.023 16.3612C68.1447 16.7102 64.6829 15.9911 61.0044 12.8702C60.2758 12.2521 59.1835 12.3409 58.5647 13.0685Z" fill="#F3F4F4"/>
</svg>
